<?xml version="1.0" encoding="utf-8"?>
<!-- Generator: Adobe Illustrator 23.0.1, SVG Export Plug-In . SVG Version: 6.00 Build 0)  -->
<svg version="1.1" id="Layer_1" xmlns="http://www.w3.org/2000/svg" xmlns:xlink="http://www.w3.org/1999/xlink" x="0px" y="0px"
	 viewBox="0 0 16.07 16.07" style="enable-background:new 0 0 16.07 16.07;" xml:space="preserve">
<style type="text/css">
	.st0{fill:#ED1C24;}
</style>
<path class="st0" d="M8.04,0.45c-4.18,0-7.59,3.4-7.59,7.59s3.4,7.59,7.59,7.59s7.59-3.4,7.59-7.59S12.22,0.45,8.04,0.45z
	 M8.04,14.62c-3.63,0-6.59-2.96-6.59-6.59c0-3.63,2.95-6.59,6.59-6.59c3.63,0,6.59,2.95,6.59,6.59
	C14.62,11.67,11.67,14.62,8.04,14.62z"/>
<path class="st0" d="M8.74,8.04l3.02-3.02c0.2-0.2,0.2-0.51,0-0.71s-0.51-0.2-0.71,0L8.04,7.33L5.01,4.31c-0.2-0.2-0.51-0.2-0.71,0
	s-0.2,0.51,0,0.71l3.02,3.02l-3.02,3.02c-0.2,0.2-0.2,0.51,0,0.71c0.1,0.1,0.23,0.15,0.35,0.15s0.26-0.05,0.35-0.15l3.02-3.02
	l3.02,3.02c0.1,0.1,0.23,0.15,0.35,0.15s0.26-0.05,0.35-0.15c0.2-0.2,0.2-0.51,0-0.71L8.74,8.04z"/>
</svg>
