<?xml version="1.0" encoding="utf-8"?>
<!-- Generator: Adobe Illustrator 23.0.1, SVG Export Plug-In . SVG Version: 6.00 Build 0)  -->
<svg version="1.1" id="Layer_1" xmlns="http://www.w3.org/2000/svg" xmlns:xlink="http://www.w3.org/1999/xlink" x="0px" y="0px"
	 viewBox="0 0 244.43 95.27" style="enable-background:new 0 0 244.43 95.27;" xml:space="preserve">
<style type="text/css">
	.st0{fill:none;stroke:#000000;stroke-miterlimit:10;}
	.st1{fill:#ED1C24;}
	.st2{fill:#FFFFFF;}
	.st3{enable-background:new    ;}
	.st4{fill:#006838;}
	.st5{fill:#58595B;}
</style>
<path class="st0" d="M81.16,85.6"/>
<path class="st0" d="M8.52,86.77"/>
<path class="st1" d="M15.73,86.77H72.1c3.99,0,7.22-3.23,7.22-7.22V15.73c0-3.99-3.23-7.22-7.22-7.22H15.73
	c-3.99,0-7.22,3.23-7.22,7.22v63.82C8.52,83.54,11.75,86.77,15.73,86.77z"/>
<path class="st0" d="M8.52,8.51"/>
<path class="st0" d="M8.52,86.77"/>
<path class="st0" d="M38.46,8.51"/>
<path class="st0" d="M81.16,7.34"/>
<path class="st0" d="M81.16,85.6"/>
<g>
	<g>
		<path class="st2" d="M44.74,38.49h-7.71c-0.51,0-0.93,0.16-1.25,0.48s-0.48,0.71-0.48,1.16v17.54c0,4.05-1.54,7.62-4.63,10.7
			c-2.89,3.02-6.4,4.53-10.51,4.53h-5.59V59.22h5.4c0.45,0,0.82-0.18,1.11-0.53s0.43-0.75,0.43-1.21V39.84
			c0-4.11,1.54-7.61,4.63-10.51c2.96-3.08,6.52-4.63,10.7-4.63h30.08c1.99,0,3.89,0.39,5.69,1.16s3.44,1.93,4.92,3.47
			c3.02,2.83,4.53,6.33,4.53,10.51V72.9H68.35V40.13c0-0.45-0.16-0.83-0.48-1.16c-0.32-0.32-0.71-0.48-1.16-0.48h-8.19V72.9H44.74
			V38.49z"/>
	</g>
	<g>
		<path class="st1" d="M46.34,38.49h-7.71c-0.51,0-0.93,0.16-1.25,0.48s-0.48,0.71-0.48,1.16v17.54c0,4.05-1.54,7.62-4.63,10.7
			c-2.89,3.02-6.4,4.53-10.51,4.53h-5.59V59.22h5.4c0.45,0,0.82-0.18,1.11-0.53s0.43-0.75,0.43-1.21V39.84
			c0-4.11,1.54-7.61,4.63-10.51c2.96-3.08,6.52-4.63,10.7-4.63h30.08c1.99,0,3.89,0.39,5.69,1.16s3.44,1.93,4.92,3.47
			c3.02,2.83,4.53,6.33,4.53,10.51V72.9h-13.7V40.13c0-0.45-0.16-0.83-0.48-1.16c-0.32-0.32-0.71-0.48-1.16-0.48h-8.19V72.9H46.34
			V38.49z"/>
	</g>
	<g>
		<path class="st2" d="M47.94,38.49h-7.71c-0.51,0-0.93,0.16-1.25,0.48s-0.48,0.71-0.48,1.16v17.54c0,4.05-1.54,7.62-4.63,10.7
			c-2.89,3.02-6.4,4.53-10.51,4.53h-5.59V59.22h5.4c0.45,0,0.82-0.18,1.11-0.53s0.43-0.75,0.43-1.21V39.84
			c0-4.11,1.54-7.61,4.63-10.51c2.96-3.08,6.52-4.63,10.7-4.63h30.08c1.99,0,3.89,0.39,5.69,1.16s3.44,1.93,4.92,3.47
			c3.02,2.83,4.53,6.33,4.53,10.51V72.9h-13.7V40.13c0-0.45-0.16-0.83-0.48-1.16c-0.32-0.32-0.71-0.48-1.16-0.48h-8.19V72.9H47.94
			V38.49z"/>
	</g>
</g>
<g class="st3">
	<path class="st4" d="M88.79,40.38h-3.12c-0.21,0-0.38,0.07-0.51,0.19c-0.13,0.13-0.2,0.29-0.2,0.47v7.1c0,1.64-0.62,3.08-1.87,4.33
		c-1.17,1.22-2.59,1.83-4.25,1.83h-2.26v-5.54h2.18c0.18,0,0.33-0.07,0.45-0.21c0.12-0.14,0.18-0.3,0.18-0.49v-7.13
		c0-1.66,0.62-3.08,1.87-4.25c1.2-1.25,2.64-1.87,4.33-1.87h12.16c0.81,0,1.57,0.16,2.3,0.47s1.39,0.78,1.99,1.4
		c1.22,1.14,1.83,2.56,1.83,4.25V54.3h-5.54V41.04c0-0.18-0.06-0.34-0.19-0.47c-0.13-0.13-0.29-0.19-0.47-0.19h-3.31V54.3h-5.58
		V40.38H88.79z"/>
	<path class="st4" d="M130.27,54.29h-16.8c-1.69,0-3.13-0.6-4.33-1.79c-1.25-1.3-1.87-2.75-1.87-4.37V47.9
		c0-1.12,0.33-2.18,0.99-3.2c0.66-1.01,1.49-1.77,2.48-2.26v-1.52c0-1.64,0.64-3.05,1.91-4.25c1.17-1.25,2.6-1.87,4.29-1.87h13.33
		v5.58h-13.26c-0.18,0-0.33,0.07-0.45,0.19c-0.12,0.13-0.18,0.29-0.18,0.47v0.7h13.88v5.58h-16.73c-0.21,0-0.38,0.07-0.51,0.21
		c-0.13,0.14-0.19,0.32-0.19,0.53c0,0.18,0.07,0.34,0.21,0.49c0.14,0.14,0.31,0.21,0.49,0.21h16.73L130.27,54.29L130.27,54.29z"/>
	<path class="st4" d="M157.57,48.13c0,1.61-0.61,3.05-1.83,4.33c-1.27,1.22-2.7,1.83-4.29,1.83h-16.88V34.8h21.68v5.58h-16.1v1.75
		h11.31c1.53,0,2.92,0.51,4.17,1.52c1.3,1.14,1.95,2.56,1.95,4.25L157.57,48.13L157.57,48.13z M152.03,48.06
		c0-0.21-0.07-0.38-0.2-0.53c-0.13-0.14-0.29-0.21-0.47-0.21h-11.23v1.44h11.23c0.16,0,0.31-0.07,0.45-0.21
		C151.96,48.4,152.03,48.24,152.03,48.06z"/>
	<path class="st4" d="M177.72,54.29V41.04c0-0.18-0.07-0.34-0.21-0.47s-0.29-0.19-0.45-0.19h-8.11c-0.18,0-0.34,0.07-0.47,0.19
		c-0.13,0.13-0.2,0.29-0.2,0.47v7.1c0,0.83-0.16,1.6-0.47,2.32s-0.77,1.38-1.36,2.01c-1.22,1.22-2.65,1.83-4.29,1.83h-1.91v-5.54
		h1.83c0.18,0,0.34-0.07,0.47-0.21s0.2-0.3,0.2-0.49v-7.13c0-1.69,0.61-3.11,1.83-4.25c1.2-1.25,2.64-1.87,4.33-1.87h8.23
		c1.61,0,3.04,0.62,4.29,1.87c1.22,1.17,1.83,2.59,1.83,4.25V54.3L177.72,54.29L177.72,54.29z"/>
	<path class="st4" d="M209.3,54.29h-5.54V47h-11.19c-0.18,0-0.34,0.06-0.49,0.18c-0.14,0.12-0.21,0.27-0.21,0.45v6.67h-5.58v-6.4
		c0-1.58,0.62-3.03,1.87-4.33l0.27-0.23c-0.26-0.7-0.39-1.51-0.39-2.42c0-0.83,0.16-1.6,0.47-2.3s0.77-1.35,1.36-1.95
		c1.25-1.25,2.68-1.87,4.29-1.87h15.13v19.49H209.3z M193.59,41.04c0,0.47,0.22,0.7,0.66,0.7h9.51v-1.36h-9.51
		c-0.16,0-0.31,0.07-0.45,0.19C193.66,40.7,193.59,40.86,193.59,41.04z"/>
	<path class="st4" d="M235.78,44.7c0,1.59-0.61,3.02-1.83,4.29c-0.62,0.6-1.29,1.05-1.99,1.36c-0.7,0.31-1.47,0.47-2.3,0.47h-11.31
		v3.47h-5.58V34.8h16.88c1.61,0,3.04,0.62,4.29,1.87c1.22,1.17,1.83,2.59,1.83,4.25v3.78H235.78z M230.24,41.04
		c0-0.18-0.07-0.34-0.2-0.47c-0.13-0.13-0.29-0.19-0.47-0.19h-11.23v4.91h11.23c0.16,0,0.31-0.07,0.45-0.21s0.21-0.31,0.21-0.49
		L230.24,41.04L230.24,41.04z"/>
</g>
<g>
	<g class="st3">
		<path class="st5" d="M147.62,30.5v-6.1h-1.81v-0.83h4.6v0.83h-1.8v6.1H147.62z"/>
		<path class="st5" d="M156.2,27.03c0,1.34-0.22,2.3-0.67,2.89c-0.39,0.51-0.99,0.77-1.8,0.77s-1.41-0.26-1.8-0.77
			c-0.46-0.59-0.68-1.55-0.68-2.9c0-2.41,0.83-3.62,2.48-3.62C155.37,23.4,156.2,24.61,156.2,27.03z M152.6,24.89
			c-0.22,0.44-0.34,1.18-0.34,2.23c0,0.89,0.1,1.55,0.3,1.98c0.23,0.51,0.62,0.76,1.16,0.76c0.54,0,0.93-0.25,1.16-0.76
			c0.19-0.42,0.29-1.08,0.29-1.98c0-1.04-0.11-1.79-0.34-2.23c-0.22-0.44-0.59-0.66-1.11-0.66
			C153.19,24.23,152.82,24.45,152.6,24.89z"/>
		<path class="st5" d="M158.74,24.35L158.74,24.35c0.16-0.3,0.37-0.54,0.66-0.72c0.25-0.16,0.51-0.23,0.77-0.23
			c1.52,0,2.27,1.18,2.27,3.53c0,2.51-0.73,3.76-2.2,3.76c-0.59,0-1.09-0.3-1.49-0.9v3.13h-0.99v-9.34h0.99L158.74,24.35
			L158.74,24.35z M158.94,25.18c-0.08,0.25-0.14,0.55-0.17,0.91c-0.03,0.26-0.04,0.58-0.04,0.94c0,0.87,0.07,1.51,0.2,1.91
			c0.2,0.61,0.57,0.92,1.13,0.92c0.49,0,0.84-0.26,1.06-0.77c0.19-0.46,0.29-1.19,0.29-2.17c0-0.3-0.01-0.56-0.04-0.8
			c-0.03-0.34-0.09-0.64-0.17-0.89c-0.22-0.67-0.6-1.01-1.15-1.01C159.51,24.23,159.14,24.54,158.94,25.18z"/>
		<path class="st5" d="M167.65,23.58v0.83h-2.67v6.1h-0.99v-6.93H167.65z"/>
		<path class="st5" d="M173.44,27.03c0,1.34-0.22,2.3-0.67,2.89c-0.39,0.51-0.99,0.77-1.8,0.77s-1.41-0.26-1.8-0.77
			c-0.46-0.59-0.68-1.55-0.68-2.9c0-2.41,0.83-3.62,2.48-3.62C172.61,23.4,173.44,24.61,173.44,27.03z M169.84,24.89
			c-0.22,0.44-0.34,1.18-0.34,2.23c0,0.89,0.1,1.55,0.3,1.98c0.23,0.51,0.62,0.76,1.16,0.76c0.54,0,0.93-0.25,1.16-0.76
			c0.19-0.42,0.29-1.08,0.29-1.98c0-1.04-0.11-1.79-0.34-2.23c-0.22-0.44-0.6-0.66-1.11-0.66
			C170.43,24.23,170.06,24.45,169.84,24.89z"/>
		<path class="st5" d="M174.99,23.58h2.25c0.53,0,0.97,0.15,1.32,0.45c0.36,0.3,0.54,0.7,0.54,1.2c0,0.43-0.1,0.8-0.31,1.1
			c-0.19,0.28-0.45,0.46-0.77,0.55v0.03c0.83,0.19,1.24,0.77,1.24,1.72c0,0.57-0.17,1.04-0.51,1.39c-0.32,0.33-0.72,0.49-1.2,0.49
			h-2.57L174.99,23.58L174.99,23.58z M175.98,26.44h1.04c0.73,0,1.09-0.35,1.09-1.05c0-0.66-0.35-0.99-1.05-0.99h-1.08L175.98,26.44
			L175.98,26.44z M175.98,29.67h1.15c0.44,0,0.74-0.1,0.91-0.3c0.16-0.18,0.23-0.48,0.23-0.91c0-0.79-0.39-1.19-1.16-1.19h-1.14v2.4
			H175.98z"/>
		<path class="st5" d="M180.71,25.44c0-1.36,0.67-2.05,1.99-2.05c0.65,0,1.15,0.18,1.49,0.53c0.3,0.31,0.44,0.72,0.44,1.23v4.08
			c0,0.37,0.13,0.56,0.38,0.56c0.08,0,0.15-0.01,0.22-0.03v0.73c-0.09,0.05-0.22,0.08-0.41,0.08c-0.33,0-0.57-0.05-0.7-0.15
			c-0.17-0.14-0.3-0.42-0.37-0.85h-0.03c-0.12,0.31-0.32,0.57-0.6,0.79c-0.3,0.22-0.61,0.33-0.93,0.33c-1.18,0-1.77-0.64-1.77-1.91
			c0-0.59,0.14-1.04,0.41-1.36c0.24-0.27,0.67-0.53,1.31-0.78c0.2-0.08,0.45-0.18,0.75-0.3c0.11-0.05,0.22-0.1,0.32-0.14
			c0.08-0.04,0.14-0.06,0.17-0.08c0.17-0.08,0.26-0.36,0.26-0.82c0-0.4-0.08-0.68-0.23-0.84c-0.16-0.16-0.43-0.24-0.82-0.24
			c-0.68,0-1.01,0.41-1.01,1.22H180.71z M183.66,26.73c-0.11,0.07-0.24,0.13-0.39,0.2l-0.39,0.18c-0.33,0.14-0.56,0.26-0.7,0.35
			c-0.47,0.29-0.71,0.72-0.71,1.28c0,0.71,0.31,1.06,0.92,1.06c0.85,0,1.27-0.47,1.27-1.4V26.73z"/>
		<path class="st5" d="M190.68,26.8l2.4-3.23h1.17l-2.14,2.7l2.2,4.23h-1.15l-1.72-3.45l-0.75,0.99v2.46h-0.99v-6.93h0.99
			L190.68,26.8L190.68,26.8z"/>
		<path class="st5" d="M200.09,27.03c0,1.34-0.22,2.3-0.67,2.89c-0.39,0.51-0.99,0.77-1.8,0.77s-1.41-0.26-1.8-0.77
			c-0.46-0.59-0.68-1.55-0.68-2.9c0-2.41,0.83-3.62,2.48-3.62C199.27,23.4,200.09,24.61,200.09,27.03z M196.5,24.89
			c-0.22,0.44-0.34,1.18-0.34,2.23c0,0.89,0.1,1.55,0.3,1.98c0.23,0.51,0.62,0.76,1.16,0.76c0.54,0,0.93-0.25,1.16-0.76
			c0.19-0.42,0.29-1.08,0.29-1.98c0-1.04-0.11-1.79-0.34-2.23c-0.22-0.44-0.6-0.66-1.11-0.66C197.09,24.23,196.71,24.45,196.5,24.89
			z"/>
		<path class="st5" d="M203.18,23.58l1.26,4.57c0.04,0.14,0.08,0.35,0.13,0.65l0.06,0.39l0.06,0.37h0.01l0.05-0.36l0.06-0.37
			c0.04-0.29,0.08-0.51,0.13-0.67l1.25-4.57h1.53v6.93h-0.95v-6.1h-0.01l-1.75,6.1h-0.67l-1.74-6.1h-0.01v6.1h-0.95v-6.93
			L203.18,23.58L203.18,23.58z"/>
		<path class="st5" d="M213.95,23.58v6.93h-0.99v-6.1h-2.45v6.1h-0.99v-6.93H213.95z"/>
		<path class="st5" d="M215.65,25.44c0-1.36,0.67-2.05,1.99-2.05c0.65,0,1.15,0.18,1.49,0.53c0.3,0.31,0.44,0.72,0.44,1.23v4.08
			c0,0.37,0.13,0.56,0.38,0.56c0.08,0,0.15-0.01,0.22-0.03v0.73c-0.09,0.05-0.22,0.08-0.41,0.08c-0.33,0-0.57-0.05-0.7-0.15
			c-0.17-0.14-0.3-0.42-0.37-0.85h-0.03c-0.12,0.31-0.32,0.57-0.6,0.79c-0.3,0.22-0.61,0.33-0.93,0.33c-1.18,0-1.77-0.64-1.77-1.91
			c0-0.59,0.14-1.04,0.41-1.36c0.24-0.27,0.67-0.53,1.31-0.78c0.2-0.08,0.45-0.18,0.75-0.3c0.11-0.05,0.22-0.1,0.32-0.14
			c0.08-0.04,0.14-0.06,0.17-0.08c0.17-0.08,0.26-0.36,0.26-0.82c0-0.4-0.08-0.68-0.23-0.84c-0.16-0.16-0.43-0.24-0.82-0.24
			c-0.68,0-1.01,0.41-1.01,1.22H215.65z M218.6,26.73c-0.11,0.07-0.24,0.13-0.39,0.2l-0.39,0.18c-0.33,0.14-0.56,0.26-0.7,0.35
			c-0.47,0.29-0.71,0.72-0.71,1.28c0,0.71,0.31,1.06,0.92,1.06c0.85,0,1.27-0.47,1.27-1.4V26.73z"/>
		<path class="st5" d="M222.38,26.44h2.45v-2.87h0.99v6.93h-0.99v-3.23h-2.45v3.23h-0.99v-6.93h0.99V26.44z"/>
		<path class="st5" d="M227.63,22.41v-1.25h0.99v1.25H227.63z M228.62,30.5h-0.99v-6.93h0.99V30.5z"/>
		<path class="st5" d="M232.44,27.58l-1.41,2.92h-1.08l1.48-3.02c-0.38-0.14-0.69-0.39-0.91-0.74s-0.34-0.75-0.34-1.2
			c0-0.59,0.18-1.07,0.54-1.44c0.35-0.36,0.81-0.54,1.38-0.54h2.38v6.93h-0.98v-2.92h-1.06V27.58z M233.5,24.4h-1.08
			c-0.45,0-0.77,0.1-0.96,0.3c-0.18,0.18-0.27,0.48-0.27,0.88c0,0.78,0.39,1.17,1.18,1.17h1.11V24.4H233.5z"/>
	</g>
</g>
<g>
	<g class="st3">
		<path class="st5" d="M80.67,56.58v3.19c0.3-0.64,0.77-0.96,1.41-0.96c1.52,0,2.28,1.17,2.28,3.51c0,2.52-0.74,3.77-2.23,3.77
			c-0.57,0-1.06-0.3-1.46-0.91v3.09h-0.99v-3.09c-0.41,0.61-0.9,0.91-1.48,0.91c-0.85,0-1.45-0.38-1.8-1.14
			c-0.28-0.59-0.42-1.47-0.42-2.63c0-2.34,0.76-3.51,2.27-3.51c0.65,0,1.12,0.31,1.42,0.94v-3.18h1V56.58z M77.21,60.59
			c-0.08,0.25-0.14,0.55-0.16,0.91c-0.03,0.26-0.04,0.58-0.04,0.94c0,0.87,0.07,1.51,0.2,1.91c0.2,0.61,0.57,0.92,1.13,0.92
			c0.49,0,0.85-0.26,1.06-0.77c0.19-0.46,0.29-1.19,0.29-2.17c0-0.3-0.01-0.56-0.04-0.8c-0.03-0.34-0.09-0.64-0.17-0.89
			c-0.22-0.67-0.6-1.01-1.15-1.01C77.79,59.64,77.42,59.96,77.21,60.59z M80.88,60.59c-0.08,0.25-0.14,0.55-0.17,0.91
			c-0.02,0.26-0.03,0.58-0.03,0.94c0,0.87,0.06,1.51,0.19,1.91c0.2,0.61,0.58,0.92,1.13,0.92c0.49,0,0.84-0.26,1.06-0.77
			c0.19-0.46,0.29-1.19,0.29-2.17c0-0.3-0.01-0.56-0.04-0.8c-0.03-0.34-0.09-0.64-0.17-0.89c-0.22-0.67-0.6-1.01-1.15-1.01
			C81.45,59.64,81.08,59.96,80.88,60.59z"/>
		<path class="st5" d="M86.24,58.99l1.63,5.53h0.03l1.53-5.53h1.03l-2.15,6.97c-0.25,0.8-0.47,1.35-0.69,1.64
			c-0.33,0.46-0.81,0.68-1.44,0.68c-0.23,0-0.46-0.04-0.7-0.12v-0.87c0.22,0.11,0.46,0.16,0.72,0.16c0.32,0,0.58-0.14,0.79-0.41
			c0.16-0.21,0.3-0.54,0.44-1.01l-2.2-7.04C85.23,58.99,86.24,58.99,86.24,58.99z"/>
		<path class="st5" d="M92.41,59.77h0.01c0.15-0.3,0.36-0.54,0.65-0.72c0.25-0.16,0.51-0.23,0.77-0.23c1.52,0,2.27,1.18,2.27,3.53
			c0,2.51-0.73,3.76-2.2,3.76c-0.59,0-1.09-0.3-1.49-0.9v3.13h-0.99V59h0.99v0.77H92.41z M92.61,60.59
			c-0.08,0.25-0.14,0.55-0.17,0.91c-0.03,0.26-0.04,0.58-0.04,0.94c0,0.87,0.07,1.51,0.2,1.91c0.2,0.61,0.57,0.92,1.13,0.92
			c0.49,0,0.84-0.26,1.06-0.77c0.19-0.46,0.29-1.19,0.29-2.17c0-0.3-0.01-0.56-0.04-0.8c-0.03-0.34-0.09-0.64-0.17-0.89
			c-0.22-0.67-0.6-1.01-1.15-1.01C93.18,59.64,92.81,59.96,92.61,60.59z"/>
		<path class="st5" d="M98.64,61.86h2.45v-2.87h0.99v6.93h-0.99v-3.23h-2.45v3.23h-0.99v-6.93h0.99V61.86z"/>
		<path class="st5" d="M103.89,57.82v-1.25h0.99v1.25H103.89z M104.88,65.92h-0.99v-6.93h0.99V65.92z"/>
		<path class="st5" d="M107.78,65.92v-6.1h-1.81v-0.83h4.6v0.83h-1.81v6.1H107.78z"/>
		<path class="st5" d="M111.98,58.99l1.63,5.53h0.03l1.53-5.53h1.03l-2.15,6.97c-0.25,0.8-0.47,1.35-0.69,1.64
			c-0.33,0.46-0.81,0.68-1.44,0.68c-0.23,0-0.46-0.04-0.7-0.12v-0.87c0.22,0.11,0.46,0.16,0.72,0.16c0.32,0,0.58-0.14,0.79-0.41
			c0.16-0.21,0.3-0.54,0.44-1.01l-2.2-7.04C110.97,58.99,111.98,58.99,111.98,58.99z"/>
		<path class="st5" d="M118.14,59.77h0.01c0.15-0.3,0.36-0.54,0.65-0.72c0.25-0.16,0.51-0.23,0.77-0.23c1.52,0,2.27,1.18,2.27,3.53
			c0,2.51-0.73,3.76-2.2,3.76c-0.59,0-1.09-0.3-1.49-0.9v3.13h-0.99V59h0.99v0.77H118.14z M118.35,60.59
			c-0.08,0.25-0.14,0.55-0.17,0.91c-0.03,0.26-0.04,0.58-0.04,0.94c0,0.87,0.07,1.51,0.2,1.91c0.2,0.61,0.57,0.92,1.13,0.92
			c0.49,0,0.84-0.26,1.06-0.77c0.19-0.46,0.29-1.19,0.29-2.17c0-0.3-0.01-0.56-0.04-0.8c-0.03-0.34-0.09-0.64-0.17-0.89
			c-0.22-0.67-0.6-1.01-1.15-1.01C118.92,59.64,118.55,59.96,118.35,60.59z"/>
		<path class="st5" d="M123.28,60.86c0-1.36,0.67-2.05,1.99-2.05c0.65,0,1.15,0.18,1.49,0.53c0.3,0.31,0.44,0.72,0.44,1.23v4.08
			c0,0.37,0.13,0.56,0.38,0.56c0.08,0,0.15-0.01,0.22-0.03v0.73c-0.09,0.05-0.22,0.08-0.41,0.08c-0.33,0-0.57-0.05-0.7-0.15
			c-0.17-0.14-0.3-0.42-0.37-0.85h-0.03c-0.12,0.31-0.32,0.57-0.6,0.79c-0.3,0.22-0.61,0.33-0.93,0.33c-1.18,0-1.77-0.64-1.77-1.91
			c0-0.59,0.14-1.04,0.41-1.36c0.24-0.27,0.67-0.53,1.31-0.78c0.2-0.08,0.45-0.18,0.75-0.3c0.11-0.05,0.22-0.1,0.32-0.14
			c0.08-0.04,0.14-0.06,0.17-0.08c0.17-0.08,0.26-0.36,0.26-0.82c0-0.4-0.08-0.68-0.23-0.84c-0.16-0.16-0.43-0.24-0.82-0.24
			c-0.68,0-1.01,0.41-1.01,1.22C124.15,60.86,123.28,60.86,123.28,60.86z M126.22,62.14c-0.11,0.07-0.24,0.13-0.39,0.2l-0.39,0.18
			c-0.33,0.14-0.56,0.26-0.7,0.35c-0.47,0.29-0.71,0.72-0.71,1.28c0,0.71,0.31,1.06,0.92,1.06c0.85,0,1.27-0.47,1.27-1.4V62.14z"/>
		<path class="st5" d="M140.25,58.99l1.26,4.57c0.04,0.14,0.08,0.35,0.13,0.65l0.06,0.39l0.06,0.37h0.01l0.05-0.36l0.06-0.37
			c0.04-0.29,0.08-0.51,0.13-0.67l1.25-4.57h1.53v6.93h-0.95v-6.1h-0.01l-1.75,6.1h-0.67l-1.74-6.1h-0.01v6.1h-0.95V59L140.25,58.99
			L140.25,58.99z"/>
		<path class="st5" d="M146.48,60.86c0-1.36,0.67-2.05,1.99-2.05c0.65,0,1.15,0.18,1.49,0.53c0.3,0.31,0.44,0.72,0.44,1.23v4.08
			c0,0.37,0.13,0.56,0.38,0.56c0.08,0,0.15-0.01,0.22-0.03v0.73c-0.09,0.05-0.22,0.08-0.41,0.08c-0.33,0-0.57-0.05-0.7-0.15
			c-0.17-0.14-0.3-0.42-0.37-0.85h-0.03c-0.12,0.31-0.32,0.57-0.6,0.79c-0.3,0.22-0.61,0.33-0.93,0.33c-1.18,0-1.77-0.64-1.77-1.91
			c0-0.59,0.14-1.04,0.41-1.36c0.24-0.27,0.67-0.53,1.31-0.78c0.2-0.08,0.45-0.18,0.75-0.3c0.11-0.05,0.22-0.1,0.32-0.14
			c0.08-0.04,0.14-0.06,0.17-0.08c0.17-0.08,0.26-0.36,0.26-0.82c0-0.4-0.08-0.68-0.23-0.84c-0.16-0.16-0.43-0.24-0.82-0.24
			c-0.68,0-1.01,0.41-1.01,1.22C147.35,60.86,146.48,60.86,146.48,60.86z M149.43,62.14c-0.11,0.07-0.24,0.13-0.39,0.2l-0.39,0.18
			c-0.33,0.14-0.56,0.26-0.7,0.35c-0.47,0.29-0.71,0.72-0.71,1.28c0,0.71,0.31,1.06,0.92,1.06c0.85,0,1.27-0.47,1.27-1.4V62.14z"/>
		<path class="st5" d="M153.32,65.92v-6.1h-1.81v-0.83h4.6v0.83h-1.81v6.1H153.32z"/>
		<path class="st5" d="M161.32,63.61c0,0.73-0.17,1.32-0.5,1.76c-0.37,0.49-0.9,0.73-1.59,0.73c-0.77,0-1.33-0.26-1.69-0.79
			c-0.41-0.58-0.61-1.54-0.61-2.87c0-1.05,0.14-1.87,0.42-2.46c0.37-0.78,0.97-1.17,1.8-1.17c0.87,0,1.48,0.42,1.82,1.25
			c0.23,0.58,0.35,1.45,0.35,2.62h-3.36c0,0.92,0.06,1.54,0.19,1.89c0.17,0.46,0.53,0.7,1.06,0.7c0.43,0,0.73-0.18,0.92-0.54
			c0.14-0.27,0.21-0.64,0.21-1.13L161.32,63.61L161.32,63.61z M160.3,61.86c0-0.66-0.07-1.16-0.2-1.5
			c-0.18-0.48-0.49-0.72-0.93-0.72c-0.49,0-0.82,0.25-1.01,0.76c-0.08,0.2-0.13,0.44-0.16,0.72c-0.03,0.21-0.04,0.46-0.04,0.73h2.34
			V61.86z"/>
		<path class="st5" d="M163.86,59.77L163.86,59.77c0.16-0.3,0.37-0.54,0.66-0.72c0.25-0.16,0.51-0.23,0.77-0.23
			c1.52,0,2.27,1.18,2.27,3.53c0,2.51-0.73,3.76-2.2,3.76c-0.59,0-1.09-0.3-1.49-0.9v3.13h-0.99V59h0.99L163.86,59.77L163.86,59.77z
			 M164.06,60.59c-0.08,0.25-0.14,0.55-0.17,0.91c-0.03,0.26-0.04,0.58-0.04,0.94c0,0.87,0.07,1.51,0.2,1.91
			c0.2,0.61,0.57,0.92,1.13,0.92c0.49,0,0.84-0.26,1.06-0.77c0.19-0.46,0.29-1.19,0.29-2.17c0-0.3-0.01-0.56-0.04-0.8
			c-0.03-0.34-0.09-0.64-0.17-0.89c-0.22-0.67-0.6-1.01-1.15-1.01C164.64,59.64,164.27,59.96,164.06,60.59z"/>
		<path class="st5" d="M169.11,57.82v-1.25h0.99v1.25H169.11z M170.1,65.92h-0.99v-6.93h0.99V65.92z"/>
		<path class="st5" d="M171.8,60.86c0-1.36,0.67-2.05,1.99-2.05c0.65,0,1.15,0.18,1.49,0.53c0.3,0.31,0.44,0.72,0.44,1.23v4.08
			c0,0.37,0.13,0.56,0.38,0.56c0.08,0,0.15-0.01,0.22-0.03v0.73c-0.09,0.05-0.22,0.08-0.41,0.08c-0.33,0-0.57-0.05-0.7-0.15
			c-0.17-0.14-0.3-0.42-0.37-0.85h-0.03c-0.12,0.31-0.32,0.57-0.6,0.79c-0.3,0.22-0.61,0.33-0.93,0.33c-1.18,0-1.77-0.64-1.77-1.91
			c0-0.59,0.14-1.04,0.41-1.36c0.24-0.27,0.67-0.53,1.31-0.78c0.2-0.08,0.45-0.18,0.75-0.3c0.11-0.05,0.22-0.1,0.32-0.14
			c0.08-0.04,0.14-0.06,0.17-0.08c0.17-0.08,0.26-0.36,0.26-0.82c0-0.4-0.08-0.68-0.23-0.84c-0.16-0.16-0.43-0.24-0.82-0.24
			c-0.68,0-1.01,0.41-1.01,1.22C172.67,60.86,171.8,60.86,171.8,60.86z M174.74,62.14c-0.11,0.07-0.24,0.13-0.39,0.2l-0.39,0.18
			c-0.33,0.14-0.56,0.26-0.7,0.35c-0.47,0.29-0.71,0.72-0.71,1.28c0,0.71,0.31,1.06,0.92,1.06c0.85,0,1.27-0.47,1.27-1.4V62.14z"/>
		<path class="st5" d="M182.02,58.99v6.93h-0.99v-6.1h-2.15v2.75c0,1.11-0.1,1.93-0.29,2.45c-0.23,0.64-0.64,0.96-1.22,0.96
			c-0.24,0-0.44-0.03-0.6-0.09v-0.78c0.13,0.03,0.27,0.04,0.42,0.04c0.28,0,0.47-0.16,0.56-0.49c0.11-0.36,0.16-1.09,0.16-2.17v-3.5
			C177.91,58.99,182.02,58.99,182.02,58.99z"/>
		<path class="st5" d="M184.82,58.99v5.27c0,0.22-0.03,0.5-0.1,0.83h0.01c0.08-0.43,0.15-0.7,0.2-0.83l2.3-5.27h1.19v6.93h-0.98
			v-5.25c0-0.09,0.01-0.23,0.04-0.42c0.02-0.16,0.04-0.3,0.06-0.44h-0.01c-0.02,0.13-0.06,0.29-0.1,0.48
			c-0.05,0.2-0.08,0.33-0.11,0.38l-2.29,5.25h-1.2v-6.93C183.83,58.99,184.82,58.99,184.82,58.99z"/>
		<path class="st5" d="M200.91,59.77L200.91,59.77c0.16-0.3,0.37-0.54,0.66-0.72c0.25-0.16,0.51-0.23,0.77-0.23
			c1.52,0,2.27,1.18,2.27,3.53c0,2.51-0.73,3.76-2.2,3.76c-0.59,0-1.09-0.3-1.49-0.9v3.13h-0.99V59h0.99L200.91,59.77L200.91,59.77z
			 M201.12,60.59c-0.08,0.25-0.14,0.55-0.17,0.91c-0.03,0.26-0.04,0.58-0.04,0.94c0,0.87,0.07,1.51,0.2,1.91
			c0.2,0.61,0.57,0.92,1.13,0.92c0.49,0,0.84-0.26,1.06-0.77c0.19-0.46,0.29-1.19,0.29-2.17c0-0.3-0.01-0.56-0.04-0.8
			c-0.03-0.34-0.09-0.64-0.17-0.89c-0.22-0.67-0.6-1.01-1.15-1.01C201.69,59.64,201.32,59.96,201.12,60.59z"/>
		<path class="st5" d="M210.29,63.61c0,0.73-0.17,1.32-0.5,1.76c-0.37,0.49-0.9,0.73-1.59,0.73c-0.77,0-1.33-0.26-1.69-0.79
			c-0.41-0.58-0.61-1.54-0.61-2.87c0-1.05,0.14-1.87,0.42-2.46c0.37-0.78,0.97-1.17,1.8-1.17c0.87,0,1.48,0.42,1.82,1.25
			c0.23,0.58,0.35,1.45,0.35,2.62h-3.36c0,0.92,0.06,1.54,0.19,1.89c0.17,0.46,0.53,0.7,1.06,0.7c0.43,0,0.73-0.18,0.92-0.54
			c0.14-0.27,0.21-0.64,0.21-1.13L210.29,63.61L210.29,63.61z M209.27,61.86c0-0.66-0.07-1.16-0.2-1.5
			c-0.18-0.48-0.49-0.72-0.93-0.72c-0.49,0-0.82,0.25-1.01,0.76c-0.08,0.2-0.13,0.44-0.16,0.72c-0.03,0.21-0.04,0.46-0.04,0.73h2.34
			V61.86z"/>
		<path class="st5" d="M213.38,58.99l1.26,4.57c0.04,0.14,0.08,0.35,0.13,0.65l0.06,0.39l0.06,0.37h0.01l0.05-0.36l0.06-0.37
			c0.04-0.29,0.08-0.51,0.13-0.67l1.25-4.57h1.53v6.93h-0.95v-6.1h-0.01l-1.75,6.1h-0.67l-1.74-6.1h-0.01v6.1h-0.95V59L213.38,58.99
			L213.38,58.99z"/>
		<path class="st5" d="M224.43,62.44c0,1.34-0.22,2.3-0.67,2.89c-0.39,0.51-0.99,0.77-1.8,0.77s-1.41-0.26-1.8-0.77
			c-0.46-0.59-0.68-1.55-0.68-2.9c0-2.41,0.83-3.62,2.48-3.62C223.6,58.81,224.43,60.02,224.43,62.44z M220.83,60.3
			c-0.22,0.44-0.34,1.18-0.34,2.23c0,0.89,0.1,1.55,0.3,1.98c0.23,0.51,0.62,0.76,1.16,0.76c0.54,0,0.93-0.25,1.16-0.76
			c0.19-0.42,0.29-1.08,0.29-1.98c0-1.04-0.11-1.79-0.34-2.23c-0.22-0.44-0.6-0.66-1.11-0.66C221.42,59.64,221.05,59.86,220.83,60.3
			z"/>
		<path class="st5" d="M226.97,61.86h2.45v-2.87h0.99v6.93h-0.99v-3.23h-2.45v3.23h-0.99v-6.93h0.99V61.86z"/>
		<path class="st5" d="M233.31,65.92v-6.1h-1.81v-0.83h4.6v0.83h-1.81v6.1H233.31z"/>
	</g>
	<circle class="st5" cx="133.1" cy="62.44" r="0.92"/>
	<circle class="st5" cx="194.21" cy="62.44" r="0.92"/>
</g>
</svg>
