<?xml version="1.0" encoding="utf-8"?>
<!-- Generator: Adobe Illustrator 23.0.1, SVG Export Plug-In . SVG Version: 6.00 Build 0)  -->
<svg version="1.1" id="Layer_1" xmlns="http://www.w3.org/2000/svg" xmlns:xlink="http://www.w3.org/1999/xlink" x="0px" y="0px"
	 viewBox="0 0 1162.84 90.1" style="enable-background:new 0 0 1162.84 90.1;" xml:space="preserve">
<style type="text/css">
	.st0{fill:#FFFFFF;}
</style>
<rect x="7" y="54" class="st0" width="1152" height="2"/>
<circle class="st0" cx="6" cy="55" r="6"/>
<circle class="st0" cx="584" cy="55" r="6"/>
<circle class="st0" cx="290" cy="55" r="6"/>
<circle class="st0" cx="890" cy="55" r="6"/>
<path class="st0" d="M170.3,90.1c-0.81,0-1.41-0.11-1.78-0.32v-1.9c0.43,0.21,0.9,0.32,1.42,0.32c0.55,0,1.01-0.2,1.38-0.6
	c0.39-0.4,0.77-1.05,1.16-1.96l-4.3-9.46h2.4l2.96,6.92l2.86-6.92h2.34l-4.7,10.88C173.16,89.09,171.91,90.1,170.3,90.1z M160.23,86
	h-2.16v-9.82h2.16v3.72l3.88-3.72h2.76l-4.66,4.4l5.36,5.42h-2.96l-4.38-4.44V86z M148.61,77.92v2.18h2.68
	c0.47,0,0.83-0.09,1.08-0.28c0.27-0.2,0.4-0.47,0.4-0.8c0-0.73-0.49-1.1-1.48-1.1H148.61z M148.61,81.84v2.42h3.12
	c0.51,0,0.9-0.11,1.18-0.32c0.29-0.21,0.44-0.51,0.44-0.88c0-0.39-0.15-0.69-0.44-0.9c-0.28-0.21-0.67-0.32-1.18-0.32H148.61z
	 M152.11,86h-5.66v-9.82h5.36c0.96,0,1.71,0.23,2.26,0.7c0.55,0.45,0.82,1.05,0.82,1.8c0,0.48-0.12,0.91-0.36,1.3
	c-0.23,0.37-0.53,0.65-0.9,0.82c1.28,0.37,1.92,1.21,1.92,2.52c0,0.84-0.31,1.5-0.92,1.98C154.03,85.77,153.19,86,152.11,86z
	 M138.51,80.88h2.7v-2.96h-2.7c-0.57,0-1.02,0.13-1.34,0.4c-0.31,0.25-0.46,0.61-0.46,1.08s0.15,0.83,0.46,1.1
	C137.49,80.75,137.93,80.88,138.51,80.88z M136.39,86h-2.48l2.78-3.82c-0.69-0.17-1.23-0.51-1.62-1.02
	c-0.37-0.51-0.56-1.13-0.56-1.88c0-0.95,0.31-1.7,0.94-2.26c0.64-0.56,1.56-0.84,2.76-0.84h5.16V86h-2.16v-3.38h-2.38L136.39,86z
	 M129.07,83.22v-1.2c-0.83-0.47-1.7-0.7-2.62-0.7c-0.72,0-1.29,0.13-1.7,0.4c-0.4,0.27-0.6,0.64-0.6,1.12
	c0,0.51,0.19,0.89,0.56,1.16c0.39,0.27,0.91,0.4,1.56,0.4c0.53,0,1.05-0.11,1.56-0.32C128.34,83.85,128.75,83.57,129.07,83.22z
	 M132.03,84.32c0.21,0,0.41-0.05,0.58-0.14v1.64c-0.29,0.21-0.71,0.32-1.26,0.32c-1.12,0-1.81-0.47-2.06-1.4
	c-0.89,1.01-2.1,1.52-3.62,1.52c-1.05,0-1.93-0.29-2.64-0.88c-0.69-0.57-1.04-1.38-1.04-2.42s0.38-1.84,1.14-2.4
	c0.75-0.57,1.68-0.86,2.8-0.86c1.19,0,2.23,0.25,3.14,0.76v-0.54c0-1.43-0.96-2.14-2.88-2.14c-1.12,0-2.15,0.29-3.1,0.88v-1.9
	c0.97-0.56,2.17-0.84,3.58-0.84c1.39,0,2.49,0.33,3.3,1c0.83,0.65,1.24,1.57,1.24,2.76v3.66c0,0.31,0.07,0.55,0.22,0.72
	C131.59,84.23,131.79,84.32,132.03,84.32z M115.55,86.26c-1.49,0-2.74-0.23-3.74-0.7V83.6c1.12,0.53,2.27,0.8,3.44,0.8
	c0.85,0,1.53-0.12,2.02-0.36c0.49-0.25,0.74-0.61,0.74-1.06c0-0.83-0.72-1.24-2.16-1.24h-1.82V80h1.82c1.23,0,1.84-0.36,1.84-1.08
	c0-0.76-0.79-1.14-2.38-1.14c-1.04,0-2.11,0.24-3.22,0.72v-1.9c1-0.45,2.23-0.68,3.68-0.68c1.2,0,2.19,0.25,2.96,0.74
	c0.79,0.51,1.18,1.14,1.18,1.9c0,1.08-0.5,1.8-1.5,2.16c1.25,0.4,1.88,1.21,1.88,2.42c0,0.92-0.43,1.67-1.3,2.26
	C118.13,85.97,116.99,86.26,115.55,86.26z M97.88,80.98v3.2h2.58c0.63,0,1.12-0.14,1.48-0.42c0.36-0.29,0.54-0.69,0.54-1.18
	c0-0.51-0.18-0.9-0.54-1.18c-0.35-0.28-0.84-0.42-1.48-0.42H97.88z M100.8,86h-5.08v-9.82h2.16v2.98h2.82c1.2,0,2.16,0.31,2.88,0.94
	c0.72,0.61,1.08,1.44,1.08,2.48c0,0.97-0.34,1.79-1.02,2.46C102.96,85.68,102.02,86,100.8,86z M90.45,86h-2.16v-7.92h-3.32v-1.9
	h8.78v1.9h-3.3V86z M75.58,86h-2.02v-9.82h2.16v6.66l5.3-6.66h2.02V86h-2.16v-6.68L75.58,86z M61.57,86h-2.08v-9.82h2.12l3.36,4.08
	l3.38-4.08h2.12V86h-2.08v-6.88l-3,3.62h-0.84l-2.98-3.62V86z M51.78,77.82c-0.63,0-1.2,0.17-1.72,0.5
	c-0.52,0.32-0.92,0.74-1.2,1.26v3.04c0.28,0.51,0.68,0.93,1.2,1.26c0.53,0.32,1.11,0.48,1.72,0.48c0.91,0,1.66-0.31,2.26-0.94
	c0.6-0.64,0.9-1.41,0.9-2.32c0-0.92-0.3-1.69-0.9-2.32C53.44,78.14,52.69,77.82,51.78,77.82z M52.36,75.92c1.39,0,2.53,0.5,3.42,1.5
	c0.89,0.99,1.34,2.21,1.34,3.68c0,1.45-0.45,2.67-1.34,3.66c-0.89,1-2.03,1.5-3.42,1.5c-1.51,0-2.67-0.53-3.5-1.6V90H46.7V76.18
	h2.16v1.34C49.69,76.45,50.85,75.92,52.36,75.92z M38.94,86.26c-1.57,0-2.87-0.5-3.88-1.5c-1.01-1-1.52-2.23-1.52-3.68
	c0-1.44,0.51-2.66,1.52-3.66c1.01-1,2.31-1.5,3.88-1.5c1.55,0,2.83,0.5,3.86,1.5c1.01,1,1.52,2.22,1.52,3.66
	c0,1.44-0.51,2.67-1.52,3.68C41.77,85.76,40.49,86.26,38.94,86.26z M38.94,84.36c0.91,0,1.67-0.31,2.3-0.94
	c0.61-0.61,0.92-1.39,0.92-2.34c0-0.93-0.31-1.71-0.92-2.32c-0.63-0.63-1.39-0.94-2.3-0.94c-0.92,0-1.69,0.31-2.32,0.94
	c-0.61,0.61-0.92,1.39-0.92,2.32c0,0.95,0.31,1.73,0.92,2.34C37.25,84.05,38.02,84.36,38.94,84.36z M26.32,77.84v6.5
	c1.01,0,1.84-0.3,2.48-0.9s0.96-1.39,0.96-2.36c0-0.96-0.32-1.73-0.96-2.32C28.16,78.16,27.33,77.85,26.32,77.84z M24.16,84.34v-6.5
	c-1.01,0.01-1.84,0.32-2.48,0.92c-0.64,0.59-0.96,1.36-0.96,2.32c0,0.97,0.32,1.76,0.96,2.36S23.14,84.34,24.16,84.34z M26.32,90
	h-2.16v-3.84c-1.75-0.07-3.1-0.56-4.06-1.48c-0.99-0.95-1.48-2.15-1.48-3.6c0-1.47,0.49-2.65,1.46-3.56
	c0.99-0.91,2.35-1.41,4.08-1.5V72h2.16v4.02c1.73,0.09,3.09,0.59,4.06,1.5c0.99,0.91,1.48,2.09,1.48,3.56c0,1.45-0.49,2.65-1.48,3.6
	c-0.96,0.92-2.31,1.41-4.06,1.48V90z M14.5,84.18c-1.36,1.39-3.07,2.08-5.12,2.08c-2.05,0-3.76-0.69-5.12-2.08
	C2.91,82.77,2.24,81.04,2.24,79c0-2.05,0.67-3.77,2.02-5.16c1.36-1.4,3.07-2.1,5.12-2.1c2.05,0,3.76,0.7,5.12,2.1
	c1.36,1.39,2.04,3.11,2.04,5.16C16.54,81.05,15.86,82.78,14.5,84.18z M5.9,82.72c0.95,0.99,2.11,1.48,3.48,1.48s2.53-0.49,3.48-1.48
	c0.95-1.01,1.42-2.25,1.42-3.72c0-1.48-0.47-2.71-1.42-3.7c-0.95-1-2.11-1.5-3.48-1.5s-2.53,0.5-3.48,1.5
	c-0.93,0.97-1.4,2.21-1.4,3.7C4.5,80.49,4.97,81.73,5.9,82.72z"/>
<path class="st0" d="M805.34,83.22v-1.2c-0.83-0.47-1.7-0.7-2.62-0.7c-0.72,0-1.29,0.13-1.7,0.4c-0.4,0.27-0.6,0.64-0.6,1.12
	c0,0.51,0.19,0.89,0.56,1.16c0.39,0.27,0.91,0.4,1.56,0.4c0.53,0,1.05-0.11,1.56-0.32C804.6,83.85,805.02,83.57,805.34,83.22z
	 M808.3,84.32c0.21,0,0.41-0.05,0.58-0.14v1.64c-0.29,0.21-0.71,0.32-1.26,0.32c-1.12,0-1.81-0.47-2.06-1.4
	c-0.89,1.01-2.1,1.52-3.62,1.52c-1.05,0-1.93-0.29-2.64-0.88c-0.69-0.57-1.04-1.38-1.04-2.42c0-1.04,0.38-1.84,1.14-2.4
	c0.75-0.57,1.68-0.86,2.8-0.86c1.19,0,2.23,0.25,3.14,0.76v-0.54c0-1.43-0.96-2.14-2.88-2.14c-1.12,0-2.15,0.29-3.1,0.88v-1.9
	c0.97-0.56,2.17-0.84,3.58-0.84c1.39,0,2.49,0.33,3.3,1c0.83,0.65,1.24,1.57,1.24,2.76v3.66c0,0.31,0.07,0.55,0.22,0.72
	C807.86,84.23,808.06,84.32,808.3,84.32z M791.36,77.82c-0.63,0-1.2,0.17-1.72,0.5c-0.52,0.32-0.92,0.74-1.2,1.26v3.04
	c0.28,0.51,0.68,0.93,1.2,1.26c0.53,0.32,1.11,0.48,1.72,0.48c0.91,0,1.66-0.31,2.26-0.94c0.6-0.64,0.9-1.41,0.9-2.32
	c0-0.92-0.3-1.69-0.9-2.32C793.02,78.14,792.27,77.82,791.36,77.82z M791.94,75.92c1.39,0,2.53,0.5,3.42,1.5
	c0.89,0.99,1.34,2.21,1.34,3.68c0,1.45-0.45,2.67-1.34,3.66c-0.89,1-2.03,1.5-3.42,1.5c-1.51,0-2.67-0.53-3.5-1.6V90h-2.16V76.18
	h2.16v1.34C789.27,76.45,790.44,75.92,791.94,75.92z M778.52,86.26c-1.57,0-2.87-0.5-3.88-1.5c-1.01-1-1.52-2.23-1.52-3.68
	c0-1.44,0.51-2.66,1.52-3.66c1.01-1,2.31-1.5,3.88-1.5c1.55,0,2.83,0.5,3.86,1.5c1.01,1,1.52,2.22,1.52,3.66
	c0,1.44-0.51,2.67-1.52,3.68C781.35,85.76,780.07,86.26,778.52,86.26z M778.52,84.36c0.91,0,1.67-0.31,2.3-0.94
	c0.61-0.61,0.92-1.39,0.92-2.34c0-0.93-0.31-1.71-0.92-2.32c-0.63-0.63-1.39-0.94-2.3-0.94c-0.92,0-1.69,0.31-2.32,0.94
	c-0.61,0.61-0.92,1.39-0.92,2.32c0,0.95,0.31,1.73,0.92,2.34C776.83,84.05,777.6,84.36,778.52,84.36z M764.36,77.92v2.18h2.68
	c0.47,0,0.83-0.09,1.08-0.28c0.27-0.2,0.4-0.47,0.4-0.8c0-0.73-0.49-1.1-1.48-1.1H764.36z M764.36,81.84v2.42h3.12
	c0.51,0,0.9-0.11,1.18-0.32c0.29-0.21,0.44-0.51,0.44-0.88c0-0.39-0.15-0.69-0.44-0.9c-0.28-0.21-0.67-0.32-1.18-0.32H764.36z
	 M767.86,86h-5.66v-9.82h5.36c0.96,0,1.71,0.23,2.26,0.7c0.55,0.45,0.82,1.05,0.82,1.8c0,0.48-0.12,0.91-0.36,1.3
	c-0.23,0.37-0.53,0.65-0.9,0.82c1.28,0.37,1.92,1.21,1.92,2.52c0,0.84-0.31,1.5-0.92,1.98C769.78,85.77,768.94,86,767.86,86z
	 M754.44,86.26c-1.57,0-2.87-0.5-3.88-1.5c-1.01-1-1.52-2.23-1.52-3.68c0-1.44,0.51-2.66,1.52-3.66c1.01-1,2.31-1.5,3.88-1.5
	c1.55,0,2.83,0.5,3.86,1.5c1.01,1,1.52,2.22,1.52,3.66c0,1.44-0.51,2.67-1.52,3.68C757.27,85.76,755.99,86.26,754.44,86.26z
	 M754.44,84.36c0.91,0,1.67-0.31,2.3-0.94c0.61-0.61,0.92-1.39,0.92-2.34c0-0.93-0.31-1.71-0.92-2.32c-0.63-0.63-1.39-0.94-2.3-0.94
	c-0.92,0-1.69,0.31-2.32,0.94c-0.61,0.61-0.92,1.39-0.92,2.32c0,0.95,0.31,1.73,0.92,2.34C752.75,84.05,753.52,84.36,754.44,84.36z
	 M742.45,86h-2.16v-9.82h7.6v1.9h-5.44V86z M732.53,86.26c-1.57,0-2.87-0.5-3.88-1.5c-1.01-1-1.52-2.23-1.52-3.68
	c0-1.44,0.51-2.66,1.52-3.66c1.01-1,2.31-1.5,3.88-1.5c1.55,0,2.83,0.5,3.86,1.5c1.01,1,1.52,2.22,1.52,3.66
	c0,1.44-0.51,2.67-1.52,3.68C735.36,85.76,734.07,86.26,732.53,86.26z M732.53,84.36c0.91,0,1.67-0.31,2.3-0.94
	c0.61-0.61,0.92-1.39,0.92-2.34c0-0.93-0.31-1.71-0.92-2.32c-0.63-0.63-1.39-0.94-2.3-0.94c-0.92,0-1.69,0.31-2.32,0.94
	c-0.61,0.61-0.92,1.39-0.92,2.32c0,0.95,0.31,1.73,0.92,2.34C730.83,84.05,731.61,84.36,732.53,84.36z M717,84.1h4.8v-6.02h-3.68
	C718.12,80.63,717.75,82.63,717,84.1z M715.52,88.7h-2.08v-4.6h1.28c0.52-0.79,0.88-1.75,1.08-2.9c0.2-1.11,0.31-2.78,0.34-5.02
	h7.82v7.92h1.7v4.6h-2.04V86h-8.1V88.7z M699.42,80.08h5.32c-0.03-0.61-0.26-1.15-0.7-1.62c-0.45-0.48-1.08-0.72-1.88-0.72
	c-0.76,0-1.39,0.23-1.9,0.68C699.77,78.86,699.49,79.41,699.42,80.08z M697.22,81.08c0-1.48,0.47-2.71,1.4-3.68
	c0.95-0.99,2.16-1.48,3.64-1.48c1.01,0,1.87,0.27,2.58,0.8c1.39,0.99,2.08,2.47,2.08,4.44v0.56h-7.52c0.13,0.83,0.53,1.47,1.18,1.94
	c0.67,0.47,1.51,0.7,2.52,0.7c1.12,0,2.17-0.29,3.16-0.88v1.82c-0.91,0.64-2.11,0.96-3.62,0.96c-1.51,0-2.79-0.48-3.86-1.44
	C697.74,83.86,697.22,82.61,697.22,81.08z M687.38,86h-2.02v-9.82h2.16v6.66l5.3-6.66h2.02V86h-2.16v-6.68L687.38,86z M675.14,86
	h-2.16v-9.82h2.16v3.84h4.98v-3.84h2.16V86h-2.16v-4.08h-4.98V86z M667.31,83.22v-1.2c-0.83-0.47-1.7-0.7-2.62-0.7
	c-0.72,0-1.29,0.13-1.7,0.4c-0.4,0.27-0.6,0.64-0.6,1.12c0,0.51,0.19,0.89,0.56,1.16c0.39,0.27,0.91,0.4,1.56,0.4
	c0.53,0,1.05-0.11,1.56-0.32C666.57,83.85,666.99,83.57,667.31,83.22z M670.27,84.32c0.21,0,0.41-0.05,0.58-0.14v1.64
	c-0.29,0.21-0.71,0.32-1.26,0.32c-1.12,0-1.81-0.47-2.06-1.4c-0.89,1.01-2.1,1.52-3.62,1.52c-1.05,0-1.93-0.29-2.64-0.88
	c-0.69-0.57-1.04-1.38-1.04-2.42c0-1.04,0.38-1.84,1.14-2.4c0.75-0.57,1.68-0.86,2.8-0.86c1.19,0,2.23,0.25,3.14,0.76v-0.54
	c0-1.43-0.96-2.14-2.88-2.14c-1.12,0-2.15,0.29-3.1,0.88v-1.9c0.97-0.56,2.17-0.84,3.58-0.84c1.39,0,2.49,0.33,3.3,1
	c0.83,0.65,1.24,1.57,1.24,2.76v3.66c0,0.31,0.07,0.55,0.22,0.72C669.83,84.23,670.03,84.32,670.27,84.32z M655.26,86.26
	c-1.48,0-2.73-0.49-3.76-1.46c-1.03-0.99-1.54-2.23-1.54-3.74s0.51-2.74,1.54-3.7c1.04-0.96,2.3-1.44,3.78-1.44
	c1.12,0,2.11,0.23,2.96,0.68v1.86c-0.89-0.43-1.77-0.64-2.64-0.64c-0.99,0-1.81,0.31-2.48,0.92c-0.67,0.63-1,1.41-1,2.34
	c0,0.95,0.33,1.73,1,2.36c0.67,0.61,1.49,0.92,2.48,0.92c1.05,0,1.99-0.25,2.8-0.74v1.84C657.46,85.99,656.42,86.26,655.26,86.26z
	 M640.12,86h-2.02v-9.82h2.16v6.66l5.3-6.66h2.02V86h-2.16v-6.68L640.12,86z M628.01,86h-2.16v-9.82h9.16V86h-2.16v-7.92h-4.84V86z
	 M615.03,84.1h4.8v-6.02h-3.68C616.15,80.63,615.78,82.63,615.03,84.1z M613.55,88.7h-2.08v-4.6h1.28c0.52-0.79,0.88-1.75,1.08-2.9
	c0.2-1.11,0.31-2.78,0.34-5.02h7.82v7.92h1.7v4.6h-2.04V86h-8.1V88.7z M605.1,86.26c-1.57,0-2.87-0.5-3.88-1.5
	c-1.01-1-1.52-2.23-1.52-3.68c0-1.44,0.51-2.66,1.52-3.66c1.01-1,2.31-1.5,3.88-1.5c1.55,0,2.83,0.5,3.86,1.5
	c1.01,1,1.52,2.22,1.52,3.66c0,1.44-0.51,2.67-1.52,3.68C607.94,85.76,606.65,86.26,605.1,86.26z M605.1,84.36
	c0.91,0,1.67-0.31,2.3-0.94c0.61-0.61,0.92-1.39,0.92-2.34c0-0.93-0.31-1.71-0.92-2.32c-0.63-0.63-1.39-0.94-2.3-0.94
	c-0.92,0-1.69,0.31-2.32,0.94c-0.61,0.61-0.92,1.39-0.92,2.32c0,0.95,0.31,1.73,0.92,2.34C603.41,84.05,604.18,84.36,605.1,84.36z
	 M587.94,86h-2.2V72h11.38v14h-2.2V74.02h-6.98V86z"/>
<path class="st0" d="M1071.44,39h-2.66l4.68-5.26l-4.12-4.56h2.54l3.44,3.84v-3.84h2.16v3.84l3.44-3.84h2.54l-4.16,4.56l4.72,5.26
	h-2.68l-3.86-4.38V39h-2.16v-4.38L1071.44,39z M1064.11,36.22v-1.2c-0.83-0.47-1.7-0.7-2.62-0.7c-0.72,0-1.29,0.13-1.7,0.4
	c-0.4,0.27-0.6,0.64-0.6,1.12c0,0.51,0.19,0.89,0.56,1.16c0.39,0.27,0.91,0.4,1.56,0.4c0.53,0,1.05-0.11,1.56-0.32
	C1063.38,36.85,1063.79,36.57,1064.11,36.22z M1067.07,37.32c0.21,0,0.41-0.05,0.58-0.14v1.64c-0.29,0.21-0.71,0.32-1.26,0.32
	c-1.12,0-1.81-0.47-2.06-1.4c-0.89,1.01-2.1,1.52-3.62,1.52c-1.05,0-1.93-0.29-2.64-0.88c-0.69-0.57-1.04-1.38-1.04-2.42
	c0-1.04,0.38-1.84,1.14-2.4c0.75-0.57,1.68-0.86,2.8-0.86c1.19,0,2.23,0.25,3.14,0.76v-0.54c0-1.43-0.96-2.14-2.88-2.14
	c-1.12,0-2.15,0.29-3.1,0.88v-1.9c0.97-0.56,2.17-0.84,3.58-0.84c1.39,0,2.49,0.33,3.3,1c0.83,0.65,1.24,1.57,1.24,2.76v3.66
	c0,0.31,0.07,0.55,0.22,0.72C1066.63,37.23,1066.83,37.32,1067.07,37.32z M1052.58,39h-2.16v-7.92h-3.32v-1.9h8.78v1.9h-3.3V39z
	 M1038.02,39h-2.16v-9.82h2.16v3.84h4.98v-3.84h2.16V39H1043v-4.08h-4.98V39z M1028.1,39.26c-1.57,0-2.87-0.5-3.88-1.5
	c-1.01-1-1.52-2.23-1.52-3.68c0-1.44,0.51-2.66,1.52-3.66c1.01-1,2.31-1.5,3.88-1.5c1.55,0,2.83,0.5,3.86,1.5
	c1.01,1,1.52,2.22,1.52,3.66c0,1.44-0.51,2.67-1.52,3.68C1030.93,38.76,1029.64,39.26,1028.1,39.26z M1028.1,37.36
	c0.91,0,1.67-0.31,2.3-0.94c0.61-0.61,0.92-1.39,0.92-2.34c0-0.93-0.31-1.71-0.92-2.32c-0.63-0.63-1.39-0.94-2.3-0.94
	c-0.92,0-1.69,0.31-2.32,0.94c-0.61,0.61-0.92,1.39-0.92,2.32c0,0.95,0.31,1.73,0.92,2.34C1026.4,37.05,1027.18,37.36,1028.1,37.36z
	 M1011.41,39h-2.08v-9.82h2.12l3.36,4.08l3.38-4.08h2.12V39h-2.08v-6.88l-3,3.62h-0.84l-2.98-3.62V39z M993.6,39h-2.02v-9.82h2.16
	v6.66l5.3-6.66h2.02V39h-2.16v-6.68L993.6,39z M980.71,36.22v-1.2c-0.83-0.47-1.7-0.7-2.62-0.7c-0.72,0-1.29,0.13-1.7,0.4
	c-0.4,0.27-0.6,0.64-0.6,1.12c0,0.51,0.19,0.89,0.56,1.16c0.39,0.27,0.91,0.4,1.56,0.4c0.53,0,1.05-0.11,1.56-0.32
	C979.98,36.85,980.39,36.57,980.71,36.22z M983.67,37.32c0.21,0,0.41-0.05,0.58-0.14v1.64c-0.29,0.21-0.71,0.32-1.26,0.32
	c-1.12,0-1.81-0.47-2.06-1.4c-0.89,1.01-2.1,1.52-3.62,1.52c-1.05,0-1.93-0.29-2.64-0.88c-0.69-0.57-1.04-1.38-1.04-2.42
	c0-1.04,0.38-1.84,1.14-2.4c0.75-0.57,1.68-0.86,2.8-0.86c1.19,0,2.23,0.25,3.14,0.76v-0.54c0-1.43-0.96-2.14-2.88-2.14
	c-1.12,0-2.15,0.29-3.1,0.88v-1.9c0.97-0.56,2.17-0.84,3.58-0.84c1.39,0,2.49,0.33,3.3,1c0.83,0.65,1.24,1.57,1.24,2.76v3.66
	c0,0.31,0.07,0.55,0.22,0.72C983.23,37.23,983.43,37.32,983.67,37.32z M965.38,39h-2.16v-9.82h2.16v3.72l3.88-3.72h2.76l-4.66,4.4
	l5.36,5.42h-2.96l-4.38-4.44V39z M953.76,30.92v2.18h2.68c0.47,0,0.83-0.09,1.08-0.28c0.27-0.2,0.4-0.47,0.4-0.8
	c0-0.73-0.49-1.1-1.48-1.1H953.76z M953.76,34.84v2.42h3.12c0.51,0,0.9-0.11,1.18-0.32c0.29-0.21,0.44-0.51,0.44-0.88
	c0-0.39-0.15-0.69-0.44-0.9c-0.28-0.21-0.67-0.32-1.18-0.32H953.76z M957.26,39h-5.66v-9.82h5.36c0.96,0,1.71,0.23,2.26,0.7
	c0.55,0.45,0.82,1.05,0.82,1.8c0,0.48-0.12,0.91-0.36,1.3c-0.23,0.37-0.53,0.65-0.9,0.82c1.28,0.37,1.92,1.21,1.92,2.52
	c0,0.84-0.31,1.5-0.92,1.98C959.18,38.77,958.34,39,957.26,39z M945.92,36.22v-1.2c-0.83-0.47-1.7-0.7-2.62-0.7
	c-0.72,0-1.29,0.13-1.7,0.4c-0.4,0.27-0.6,0.64-0.6,1.12c0,0.51,0.19,0.89,0.56,1.16c0.39,0.27,0.91,0.4,1.56,0.4
	c0.53,0,1.05-0.11,1.56-0.32C945.19,36.85,945.6,36.57,945.92,36.22z M948.88,37.32c0.21,0,0.41-0.05,0.58-0.14v1.64
	c-0.29,0.21-0.71,0.32-1.26,0.32c-1.12,0-1.81-0.47-2.06-1.4c-0.89,1.01-2.1,1.52-3.62,1.52c-1.05,0-1.93-0.29-2.64-0.88
	c-0.69-0.57-1.04-1.38-1.04-2.42c0-1.04,0.38-1.84,1.14-2.4c0.75-0.57,1.68-0.86,2.8-0.86c1.19,0,2.23,0.25,3.14,0.76v-0.54
	c0-1.43-0.96-2.14-2.88-2.14c-1.12,0-2.15,0.29-3.1,0.88v-1.9c0.97-0.56,2.17-0.84,3.58-0.84c1.39,0,2.49,0.33,3.3,1
	c0.83,0.65,1.24,1.57,1.24,2.76v3.66c0,0.31,0.07,0.55,0.22,0.72C948.44,37.23,948.64,37.32,948.88,37.32z M934.4,39h-2.16v-7.92
	h-3.32v-1.9h8.78v1.9h-3.3V39z M924.26,39.26c-1.48,0-2.73-0.49-3.76-1.46c-1.03-0.99-1.54-2.23-1.54-3.74s0.51-2.74,1.54-3.7
	c1.04-0.96,2.3-1.44,3.78-1.44c1.12,0,2.11,0.23,2.96,0.68v1.86c-0.89-0.43-1.77-0.64-2.64-0.64c-0.99,0-1.81,0.31-2.48,0.92
	c-0.67,0.63-1,1.41-1,2.34c0,0.95,0.33,1.73,1,2.36c0.67,0.61,1.49,0.92,2.48,0.92c1.05,0,1.99-0.25,2.8-0.74v1.84
	C926.47,38.99,925.42,39.26,924.26,39.26z M911.9,39.26c-1.57,0-2.87-0.5-3.88-1.5c-1.01-1-1.52-2.23-1.52-3.68
	c0-1.44,0.51-2.66,1.52-3.66c1.01-1,2.31-1.5,3.88-1.5c1.55,0,2.83,0.5,3.86,1.5c1.01,1,1.52,2.22,1.52,3.66
	c0,1.44-0.51,2.67-1.52,3.68C914.74,38.76,913.45,39.26,911.9,39.26z M911.9,37.36c0.91,0,1.67-0.31,2.3-0.94
	c0.61-0.61,0.92-1.39,0.92-2.34c0-0.93-0.31-1.71-0.92-2.32c-0.63-0.63-1.39-0.94-2.3-0.94c-0.92,0-1.69,0.31-2.32,0.94
	c-0.61,0.61-0.92,1.39-0.92,2.32c0,0.95,0.31,1.73,0.92,2.34C910.21,37.05,910.98,37.36,911.9,37.36z M894.02,36.98h6.8v-9.96h-4.92
	c0,2.33-0.14,4.29-0.42,5.88C895.2,34.5,894.71,35.86,894.02,36.98z M892.36,42h-2.08v-5.02h1.34c0.73-1.11,1.27-2.41,1.62-3.9
	c0.35-1.53,0.52-3.58,0.52-6.14V25h9.26v11.98h2.02V42h-2.08v-3h-10.6V42z"/>
<path class="st0" d="M509.46,36.22v-1.2c-0.83-0.47-1.7-0.7-2.62-0.7c-0.72,0-1.29,0.13-1.7,0.4c-0.4,0.27-0.6,0.64-0.6,1.12
	c0,0.51,0.19,0.89,0.56,1.16c0.39,0.27,0.91,0.4,1.56,0.4c0.53,0,1.05-0.11,1.56-0.32C508.73,36.85,509.14,36.57,509.46,36.22z
	 M512.42,37.32c0.21,0,0.41-0.05,0.58-0.14v1.64c-0.29,0.21-0.71,0.32-1.26,0.32c-1.12,0-1.81-0.47-2.06-1.4
	c-0.89,1.01-2.1,1.52-3.62,1.52c-1.05,0-1.93-0.29-2.64-0.88c-0.69-0.57-1.04-1.38-1.04-2.42c0-1.04,0.38-1.84,1.14-2.4
	c0.75-0.57,1.68-0.86,2.8-0.86c1.19,0,2.23,0.25,3.14,0.76v-0.54c0-1.43-0.96-2.14-2.88-2.14c-1.12,0-2.15,0.29-3.1,0.88v-1.9
	c0.97-0.56,2.17-0.84,3.58-0.84c1.39,0,2.49,0.33,3.3,1c0.83,0.65,1.24,1.57,1.24,2.76v3.66c0,0.31,0.07,0.55,0.22,0.72
	C511.98,37.23,512.18,37.32,512.42,37.32z M497.93,39h-2.16v-7.92h-3.32v-1.9h8.78v1.9h-3.3V39z M484.5,39h-2.16v-9.82h2.16v3.72
	l3.88-3.72h2.76l-4.66,4.4l5.36,5.42h-2.96l-4.38-4.44V39z M474.69,39.26c-1.17,0-2.21-0.26-3.12-0.78V36.6
	c0.87,0.51,1.79,0.76,2.78,0.76c0.88,0,1.63-0.22,2.26-0.66c0.64-0.45,1.02-1.05,1.14-1.78h-4.14v-1.74h4.14
	c-0.16-0.73-0.55-1.31-1.16-1.72c-0.61-0.43-1.36-0.64-2.24-0.64c-0.91,0-1.77,0.21-2.58,0.64v-1.88c0.85-0.44,1.83-0.66,2.92-0.66
	c1.47,0,2.71,0.48,3.74,1.44c1.03,0.96,1.54,2.19,1.54,3.7s-0.51,2.75-1.54,3.74C477.41,38.77,476.17,39.26,474.69,39.26z
	 M464.76,39.26c-1.57,0-2.87-0.5-3.88-1.5c-1.01-1-1.52-2.23-1.52-3.68c0-1.44,0.51-2.66,1.52-3.66c1.01-1,2.31-1.5,3.88-1.5
	c1.55,0,2.83,0.5,3.86,1.5c1.01,1,1.52,2.22,1.52,3.66c0,1.44-0.51,2.67-1.52,3.68C467.59,38.76,466.3,39.26,464.76,39.26z
	 M464.76,37.36c0.91,0,1.67-0.31,2.3-0.94c0.61-0.61,0.92-1.39,0.92-2.34c0-0.93-0.31-1.71-0.92-2.32c-0.63-0.63-1.39-0.94-2.3-0.94
	c-0.92,0-1.69,0.31-2.32,0.94c-0.61,0.61-0.92,1.39-0.92,2.32c0,0.95,0.31,1.73,0.92,2.34C463.06,37.05,463.84,37.36,464.76,37.36z
	 M452.34,30.82c-0.63,0-1.2,0.17-1.72,0.5c-0.52,0.32-0.92,0.74-1.2,1.26v3.04c0.28,0.51,0.68,0.93,1.2,1.26
	c0.53,0.32,1.11,0.48,1.72,0.48c0.91,0,1.66-0.31,2.26-0.94c0.6-0.64,0.9-1.41,0.9-2.32c0-0.92-0.3-1.69-0.9-2.32
	C454,31.14,453.25,30.82,452.34,30.82z M452.92,28.92c1.39,0,2.53,0.5,3.42,1.5c0.89,0.99,1.34,2.21,1.34,3.68
	c0,1.45-0.45,2.67-1.34,3.66c-0.89,1-2.03,1.5-3.42,1.5c-1.51,0-2.67-0.53-3.5-1.6V43h-2.16V29.18h2.16v1.34
	C450.25,29.45,451.42,28.92,452.92,28.92z M437.18,39h-2.16v-9.82h9.16V39h-2.16v-7.92h-4.84V39z M419.88,33.08h5.32
	c-0.03-0.61-0.26-1.15-0.7-1.62c-0.45-0.48-1.08-0.72-1.88-0.72c-0.76,0-1.39,0.23-1.9,0.68C420.22,31.86,419.94,32.41,419.88,33.08
	z M417.68,34.08c0-1.48,0.47-2.71,1.4-3.68c0.95-0.99,2.16-1.48,3.64-1.48c1.01,0,1.87,0.27,2.58,0.8c1.39,0.99,2.08,2.47,2.08,4.44
	v0.56h-7.52c0.13,0.83,0.53,1.47,1.18,1.94c0.67,0.47,1.51,0.7,2.52,0.7c1.12,0,2.17-0.29,3.16-0.88v1.82
	c-0.91,0.64-2.11,0.96-3.62,0.96c-1.51,0-2.79-0.48-3.86-1.44C418.2,36.86,417.68,35.61,417.68,34.08z M407.84,39h-2.02v-9.82h2.16
	v6.66l5.3-6.66h2.02V39h-2.16v-6.68L407.84,39z M395.59,39h-2.16v-9.82h2.16v3.84h4.98v-3.84h2.16V39h-2.16v-4.08h-4.98V39z
	 M387.76,36.22v-1.2c-0.83-0.47-1.7-0.7-2.62-0.7c-0.72,0-1.29,0.13-1.7,0.4c-0.4,0.27-0.6,0.64-0.6,1.12
	c0,0.51,0.19,0.89,0.56,1.16c0.39,0.27,0.91,0.4,1.56,0.4c0.53,0,1.05-0.11,1.56-0.32C387.03,36.85,387.44,36.57,387.76,36.22z
	 M390.72,37.32c0.21,0,0.41-0.05,0.58-0.14v1.64c-0.29,0.21-0.71,0.32-1.26,0.32c-1.12,0-1.81-0.47-2.06-1.4
	c-0.89,1.01-2.1,1.52-3.62,1.52c-1.05,0-1.93-0.29-2.64-0.88c-0.69-0.57-1.04-1.38-1.04-2.42c0-1.04,0.38-1.84,1.14-2.4
	c0.75-0.57,1.68-0.86,2.8-0.86c1.19,0,2.23,0.25,3.14,0.76v-0.54c0-1.43-0.96-2.14-2.88-2.14c-1.12,0-2.15,0.29-3.1,0.88v-1.9
	c0.97-0.56,2.17-0.84,3.58-0.84c1.39,0,2.49,0.33,3.3,1c0.83,0.65,1.24,1.57,1.24,2.76v3.66c0,0.31,0.07,0.55,0.22,0.72
	C390.28,37.23,390.48,37.32,390.72,37.32z M372.04,30.92v2.18h2.68c0.47,0,0.83-0.09,1.08-0.28c0.27-0.2,0.4-0.47,0.4-0.8
	c0-0.73-0.49-1.1-1.48-1.1H372.04z M372.04,34.84v2.42h3.12c0.51,0,0.9-0.11,1.18-0.32c0.29-0.21,0.44-0.51,0.44-0.88
	c0-0.39-0.15-0.69-0.44-0.9c-0.28-0.21-0.67-0.32-1.18-0.32H372.04z M375.54,39h-5.66v-9.82h5.36c0.96,0,1.71,0.23,2.26,0.7
	c0.55,0.45,0.82,1.05,0.82,1.8c0,0.48-0.12,0.91-0.36,1.3c-0.23,0.37-0.53,0.65-0.9,0.82c1.28,0.37,1.92,1.21,1.92,2.52
	c0,0.84-0.31,1.5-0.92,1.98C377.46,38.77,376.62,39,375.54,39z M362.12,39.26c-1.57,0-2.87-0.5-3.88-1.5
	c-1.01-1-1.52-2.23-1.52-3.68c0-1.44,0.51-2.66,1.52-3.66c1.01-1,2.31-1.5,3.88-1.5c1.55,0,2.83,0.5,3.86,1.5
	c1.01,1,1.52,2.22,1.52,3.66c0,1.44-0.51,2.67-1.52,3.68C364.95,38.76,363.67,39.26,362.12,39.26z M362.12,37.36
	c0.91,0,1.67-0.31,2.3-0.94c0.61-0.61,0.92-1.39,0.92-2.34c0-0.93-0.31-1.71-0.92-2.32c-0.63-0.63-1.39-0.94-2.3-0.94
	c-0.92,0-1.69,0.31-2.32,0.94c-0.61,0.61-0.92,1.39-0.92,2.32c0,0.95,0.31,1.73,0.92,2.34C360.43,37.05,361.2,37.36,362.12,37.36z
	 M351.82,39.26c-1.48,0-2.73-0.49-3.76-1.46c-1.03-0.99-1.54-2.23-1.54-3.74s0.51-2.74,1.54-3.7c1.04-0.96,2.3-1.44,3.78-1.44
	c1.12,0,2.11,0.23,2.96,0.68v1.86c-0.89-0.43-1.77-0.64-2.64-0.64c-0.99,0-1.81,0.31-2.48,0.92c-0.67,0.63-1,1.41-1,2.34
	c0,0.95,0.33,1.73,1,2.36c0.67,0.61,1.49,0.92,2.48,0.92c1.05,0,1.99-0.25,2.8-0.74v1.84C354.03,38.99,352.98,39.26,351.82,39.26z
	 M341.55,36.22v-1.2c-0.83-0.47-1.7-0.7-2.62-0.7c-0.72,0-1.29,0.13-1.7,0.4c-0.4,0.27-0.6,0.64-0.6,1.12
	c0,0.51,0.19,0.89,0.56,1.16c0.39,0.27,0.91,0.4,1.56,0.4c0.53,0,1.05-0.11,1.56-0.32C340.82,36.85,341.23,36.57,341.55,36.22z
	 M344.51,37.32c0.21,0,0.41-0.05,0.58-0.14v1.64c-0.29,0.21-0.71,0.32-1.26,0.32c-1.12,0-1.81-0.47-2.06-1.4
	c-0.89,1.01-2.1,1.52-3.62,1.52c-1.05,0-1.93-0.29-2.64-0.88c-0.69-0.57-1.04-1.38-1.04-2.42c0-1.04,0.38-1.84,1.14-2.4
	c0.75-0.57,1.68-0.86,2.8-0.86c1.19,0,2.23,0.25,3.14,0.76v-0.54c0-1.43-0.96-2.14-2.88-2.14c-1.12,0-2.15,0.29-3.1,0.88v-1.9
	c0.97-0.56,2.17-0.84,3.58-0.84c1.39,0,2.49,0.33,3.3,1c0.83,0.65,1.24,1.57,1.24,2.76v3.66c0,0.31,0.07,0.55,0.22,0.72
	C344.07,37.23,344.27,37.32,344.51,37.32z M330.05,31.08h-3.7l-0.04,1.42c-0.01,1.41-0.16,2.63-0.44,3.64
	c-0.47,1.87-1.59,2.83-3.38,2.9c-0.28,0-0.51-0.03-0.68-0.08V37.1c0.15,0.04,0.29,0.06,0.44,0.06c0.71,0,1.21-0.36,1.5-1.08
	c0.29-0.73,0.45-1.97,0.48-3.7l0.06-3.2h7.92V39h-2.16V31.08z M316.36,39h-2.16v-9.82h7.6v1.9h-5.44V39z M306.44,39.26
	c-1.57,0-2.87-0.5-3.88-1.5s-1.52-2.23-1.52-3.68c0-1.44,0.51-2.66,1.52-3.66s2.31-1.5,3.88-1.5c1.55,0,2.83,0.5,3.86,1.5
	c1.01,1,1.52,2.22,1.52,3.66c0,1.44-0.51,2.67-1.52,3.68C309.27,38.76,307.98,39.26,306.44,39.26z M306.44,37.36
	c0.91,0,1.67-0.31,2.3-0.94c0.61-0.61,0.92-1.39,0.92-2.34c0-0.93-0.31-1.71-0.92-2.32c-0.63-0.63-1.39-0.94-2.3-0.94
	c-0.92,0-1.69,0.31-2.32,0.94c-0.61,0.61-0.92,1.39-0.92,2.32c0,0.95,0.31,1.73,0.92,2.34C304.74,37.05,305.52,37.36,306.44,37.36z
	 M296.14,39.26c-1.48,0-2.73-0.49-3.76-1.46c-1.03-0.99-1.54-2.23-1.54-3.74s0.51-2.74,1.54-3.7c1.04-0.96,2.3-1.44,3.78-1.44
	c1.12,0,2.11,0.23,2.96,0.68v1.86c-0.89-0.43-1.77-0.64-2.64-0.64c-0.99,0-1.81,0.31-2.48,0.92c-0.67,0.63-1,1.41-1,2.34
	c0,0.95,0.33,1.73,1,2.36c0.67,0.61,1.49,0.92,2.48,0.92c1.05,0,1.99-0.25,2.8-0.74v1.84C298.35,38.99,297.3,39.26,296.14,39.26z
	 M475.88,17.04h-1.7l1.66-5.6h2.48L475.88,17.04z M469.89,11.22v-1.2c-0.83-0.47-1.7-0.7-2.62-0.7c-0.72,0-1.29,0.13-1.7,0.4
	c-0.4,0.27-0.6,0.64-0.6,1.12c0,0.51,0.19,0.89,0.56,1.16c0.39,0.27,0.91,0.4,1.56,0.4c0.53,0,1.05-0.11,1.56-0.32
	C469.16,11.85,469.57,11.57,469.89,11.22z M472.85,12.32c0.21,0,0.41-0.05,0.58-0.14v1.64c-0.29,0.21-0.71,0.32-1.26,0.32
	c-1.12,0-1.81-0.47-2.06-1.4c-0.89,1.01-2.1,1.52-3.62,1.52c-1.05,0-1.93-0.29-2.64-0.88c-0.69-0.57-1.04-1.38-1.04-2.42
	c0-1.04,0.38-1.84,1.14-2.4c0.75-0.57,1.68-0.86,2.8-0.86c1.19,0,2.23,0.25,3.14,0.76V7.92c0-1.43-0.96-2.14-2.88-2.14
	c-1.12,0-2.15,0.29-3.1,0.88v-1.9c0.97-0.56,2.17-0.84,3.58-0.84c1.39,0,2.49,0.33,3.3,1c0.83,0.65,1.24,1.57,1.24,2.76v3.66
	c0,0.31,0.07,0.55,0.22,0.72C472.41,12.23,472.61,12.32,472.85,12.32z M454.56,14h-2.16V4.18h2.16V7.9l3.88-3.72h2.76l-4.66,4.4
	L461.9,14h-2.96l-4.38-4.44V14z M441.86,14h-2.02V4.18H442v6.66l5.3-6.66h2.02V14h-2.16V7.32L441.86,14z M435.58,14h-13.42V4.18
	h2.16v7.92h3.66V4.18h2.16v7.92h3.66V4.18h2.16v7.92h1.72v4.6h-2.1V14z M414.45,5.82c-0.63,0-1.2,0.17-1.72,0.5
	c-0.52,0.32-0.92,0.74-1.2,1.26v3.04c0.28,0.51,0.68,0.93,1.2,1.26c0.53,0.32,1.11,0.48,1.72,0.48c0.91,0,1.66-0.31,2.26-0.94
	c0.6-0.64,0.9-1.41,0.9-2.32c0-0.92-0.3-1.69-0.9-2.32C416.11,6.14,415.36,5.82,414.45,5.82z M415.03,3.92c1.39,0,2.53,0.5,3.42,1.5
	c0.89,0.99,1.34,2.21,1.34,3.68c0,1.45-0.45,2.67-1.34,3.66c-0.89,1-2.03,1.5-3.42,1.5c-1.51,0-2.67-0.53-3.5-1.6V18h-2.16V4.18
	h2.16v1.34C412.36,4.45,413.53,3.92,415.03,3.92z M399.43,8.08h5.32c-0.03-0.61-0.26-1.15-0.7-1.62c-0.45-0.48-1.08-0.72-1.88-0.72
	c-0.76,0-1.39,0.23-1.9,0.68C399.77,6.86,399.49,7.41,399.43,8.08z M397.23,9.08c0-1.48,0.47-2.71,1.4-3.68
	c0.95-0.99,2.16-1.48,3.64-1.48c1.01,0,1.87,0.27,2.58,0.8c1.39,0.99,2.08,2.47,2.08,4.44v0.56h-7.52c0.13,0.83,0.53,1.47,1.18,1.94
	c0.67,0.47,1.51,0.7,2.52,0.7c1.12,0,2.17-0.29,3.16-0.88v1.82c-0.91,0.64-2.11,0.96-3.62,0.96c-1.51,0-2.79-0.48-3.86-1.44
	C397.75,11.86,397.23,10.61,397.23,9.08z M385.94,14h-2.08V4.18h2.12l3.36,4.08l3.38-4.08h2.12V14h-2.08V7.12l-3,3.62h-0.84
	l-2.98-3.62V14z M378.19,11.22v-1.2c-0.83-0.47-1.7-0.7-2.62-0.7c-0.72,0-1.29,0.13-1.7,0.4c-0.4,0.27-0.6,0.64-0.6,1.12
	c0,0.51,0.19,0.89,0.56,1.16c0.39,0.27,0.91,0.4,1.56,0.4c0.53,0,1.05-0.11,1.56-0.32C377.46,11.85,377.87,11.57,378.19,11.22z
	 M381.15,12.32c0.21,0,0.41-0.05,0.58-0.14v1.64c-0.29,0.21-0.71,0.32-1.26,0.32c-1.12,0-1.81-0.47-2.06-1.4
	c-0.89,1.01-2.1,1.52-3.62,1.52c-1.05,0-1.93-0.29-2.64-0.88c-0.69-0.57-1.04-1.38-1.04-2.42c0-1.04,0.38-1.84,1.14-2.4
	c0.75-0.57,1.68-0.86,2.8-0.86c1.19,0,2.23,0.25,3.14,0.76V7.92c0-1.43-0.96-2.14-2.88-2.14c-1.12,0-2.15,0.29-3.1,0.88v-1.9
	c0.97-0.56,2.17-0.84,3.58-0.84c1.39,0,2.49,0.33,3.3,1c0.83,0.65,1.24,1.57,1.24,2.76v3.66c0,0.31,0.07,0.55,0.22,0.72
	C380.71,12.23,380.91,12.32,381.15,12.32z M364.66,14.26c-1.49,0-2.74-0.23-3.74-0.7V11.6c1.12,0.53,2.27,0.8,3.44,0.8
	c0.85,0,1.53-0.12,2.02-0.36c0.49-0.25,0.74-0.61,0.74-1.06c0-0.83-0.72-1.24-2.16-1.24h-1.82V8h1.82c1.23,0,1.84-0.36,1.84-1.08
	c0-0.76-0.79-1.14-2.38-1.14c-1.04,0-2.11,0.24-3.22,0.72V4.6c1-0.45,2.23-0.68,3.68-0.68c1.2,0,2.19,0.25,2.96,0.74
	c0.79,0.51,1.18,1.14,1.18,1.9c0,1.08-0.5,1.8-1.5,2.16c1.25,0.4,1.88,1.21,1.88,2.42c0,0.92-0.43,1.67-1.3,2.26
	C367.25,13.97,366.1,14.26,364.66,14.26z M345.35,12.1h4.8V6.08h-3.68C346.47,8.63,346.09,10.63,345.35,12.1z M343.87,16.7h-2.08
	v-4.6h1.28c0.52-0.79,0.88-1.75,1.08-2.9c0.2-1.11,0.31-2.78,0.34-5.02h7.82v7.92h1.7v4.6h-2.04V14h-8.1V16.7z M335.64,14.26
	c-1.49,0-2.74-0.23-3.74-0.7V11.6c1.12,0.53,2.27,0.8,3.44,0.8c0.85,0,1.53-0.12,2.02-0.36c0.49-0.25,0.74-0.61,0.74-1.06
	c0-0.83-0.72-1.24-2.16-1.24h-1.82V8h1.82c1.23,0,1.84-0.36,1.84-1.08c0-0.76-0.79-1.14-2.38-1.14c-1.04,0-2.11,0.24-3.22,0.72V4.6
	c1-0.45,2.23-0.68,3.68-0.68c1.2,0,2.19,0.25,2.96,0.74c0.79,0.51,1.18,1.14,1.18,1.9c0,1.08-0.5,1.8-1.5,2.16
	c1.25,0.4,1.88,1.21,1.88,2.42c0,0.92-0.43,1.67-1.3,2.26C338.23,13.97,337.08,14.26,335.64,14.26z M322.57,8.08h5.32
	c-0.03-0.61-0.26-1.15-0.7-1.62c-0.45-0.48-1.08-0.72-1.88-0.72c-0.76,0-1.39,0.23-1.9,0.68C322.92,6.86,322.64,7.41,322.57,8.08z
	 M320.37,9.08c0-1.48,0.47-2.71,1.4-3.68c0.95-0.99,2.16-1.48,3.64-1.48c1.01,0,1.87,0.27,2.58,0.8c1.39,0.99,2.08,2.47,2.08,4.44
	v0.56h-7.52c0.13,0.83,0.53,1.47,1.18,1.94c0.67,0.47,1.51,0.7,2.52,0.7c1.12,0,2.17-0.29,3.16-0.88v1.82
	c-0.91,0.64-2.11,0.96-3.62,0.96c-1.51,0-2.79-0.48-3.86-1.44C320.89,11.86,320.37,10.61,320.37,9.08z M308.11,8.98v3.2h2.14
	c0.63,0,1.12-0.14,1.48-0.42c0.36-0.29,0.54-0.69,0.54-1.18c0-0.51-0.18-0.9-0.54-1.18c-0.35-0.28-0.84-0.42-1.48-0.42H308.11z
	 M310.59,14h-4.64V4.18h2.16v2.98h2.38c1.2,0,2.16,0.31,2.88,0.94c0.72,0.61,1.08,1.44,1.08,2.48c0,0.97-0.34,1.79-1.02,2.46
	C312.75,13.68,311.81,14,310.59,14z M317.99,14h-2.16V4.18h2.16V14z M293.94,2.02v3.62h3.78c0.73,0,1.3-0.15,1.7-0.46
	c0.41-0.32,0.62-0.77,0.62-1.36s-0.21-1.03-0.62-1.34c-0.4-0.31-0.97-0.46-1.7-0.46H293.94z M293.94,7.58v4.4h4.28
	c0.85,0,1.52-0.19,2-0.58c0.49-0.4,0.74-0.95,0.74-1.66c0-0.69-0.24-1.23-0.72-1.6c-0.48-0.37-1.15-0.56-2.02-0.56H293.94z
	 M298.62,14h-6.88V0h6.36c1.27,0,2.27,0.31,3,0.92c0.75,0.61,1.12,1.45,1.12,2.52c0,0.69-0.17,1.29-0.52,1.8
	c-0.35,0.51-0.79,0.87-1.34,1.08c0.88,0.16,1.59,0.57,2.14,1.24c0.56,0.67,0.84,1.5,0.84,2.5c0,1.19-0.43,2.14-1.28,2.86
	C301.22,13.64,300.07,14,298.62,14z"/>
<rect x="1148.52" y="37.96" transform="matrix(0.4819 -0.8762 0.8762 0.4819 552.2795 1032.8069)" class="st0" width="2" height="22.83"/>
<rect x="1138.07" y="59.38" transform="matrix(0.8762 -0.4819 0.4819 0.8762 113.1911 561.4305)" class="st0" width="22.83" height="2"/>
</svg>
